<?xml version="1.0" encoding="UTF-8" standalone="no"?>
<!DOCTYPE svg PUBLIC "-//W3C//DTD SVG 1.1//EN"
 "http://www.w3.org/Graphics/SVG/1.1/DTD/svg11.dtd">
<!-- Generated by graphviz version 2.38.0 (20140413.2041)
 -->
<!-- Title: models_diagram Pages: 1 -->
<svg width="936pt" height="130pt"
 viewBox="0.00 0.00 936.00 130.00" xmlns="http://www.w3.org/2000/svg" xmlns:xlink="http://www.w3.org/1999/xlink">
<g id="graph0" class="graph" transform="scale(1 1) rotate(0) translate(4 126)">
<title>models_diagram</title>
<polygon fill="none" stroke="none" points="-4,4 -4,-126 932,-126 932,4 -4,4"/>
<!-- _diagram_info -->
<g id="node1" class="node"><title>_diagram_info</title>
<text text-anchor="start" x="8" y="-85.6" font-family="Times,serif" font-size="13.00">Models diagram</text>
<text text-anchor="start" x="8" y="-71.6" font-family="Times,serif" font-size="13.00">Date: Aug 30 2017 &#45; 12:57</text>
<text text-anchor="start" x="8" y="-57.6" font-family="Times,serif" font-size="13.00">Migration version: 20170830154643</text>
<text text-anchor="start" x="8" y="-43.6" font-family="Times,serif" font-size="13.00">Generated by RailRoady 1.5.3</text>
<text text-anchor="start" x="8" y="-29.6" font-family="Times,serif" font-size="13.00">http://railroady.prestonlee.com</text>
</g>
<!-- ApplicationRecord -->
<g id="node2" class="node"><title>ApplicationRecord</title>
<ellipse fill="none" stroke="black" cx="309" cy="-61" rx="77.1866" ry="18"/>
<text text-anchor="middle" x="309" y="-57.3" font-family="Times,serif" font-size="14.00">ApplicationRecord</text>
</g>
<!-- Product -->
<g id="node3" class="node"><title>Product</title>
<path fill="none" stroke="black" d="M416,-0.5C416,-0.5 636,-0.5 636,-0.5 642,-0.5 648,-6.5 648,-12.5 648,-12.5 648,-109.5 648,-109.5 648,-115.5 642,-121.5 636,-121.5 636,-121.5 416,-121.5 416,-121.5 410,-121.5 404,-115.5 404,-109.5 404,-109.5 404,-12.5 404,-12.5 404,-6.5 410,-0.5 416,-0.5"/>
<text text-anchor="middle" x="526" y="-106.3" font-family="Times,serif" font-size="14.00">Product</text>
<polyline fill="none" stroke="black" points="404,-98.5 648,-98.5 "/>
<text text-anchor="start" x="412" y="-83.3" font-family="Times,serif" font-size="14.00">id :integer</text>
<text text-anchor="start" x="412" y="-68.3" font-family="Times,serif" font-size="14.00">name :character varying</text>
<text text-anchor="start" x="412" y="-53.3" font-family="Times,serif" font-size="14.00">created_at :timestamp without time zone</text>
<text text-anchor="start" x="412" y="-38.3" font-family="Times,serif" font-size="14.00">updated_at :timestamp without time zone</text>
<text text-anchor="start" x="412" y="-23.3" font-family="Times,serif" font-size="14.00">product_id :integer</text>
<text text-anchor="start" x="412" y="-8.3" font-family="Times,serif" font-size="14.00">price :character varying</text>
</g>
<!-- Category -->
<g id="node4" class="node"><title>Category</title>
<path fill="none" stroke="black" d="M678,-15.5C678,-15.5 898,-15.5 898,-15.5 904,-15.5 910,-21.5 910,-27.5 910,-27.5 910,-94.5 910,-94.5 910,-100.5 904,-106.5 898,-106.5 898,-106.5 678,-106.5 678,-106.5 672,-106.5 666,-100.5 666,-94.5 666,-94.5 666,-27.5 666,-27.5 666,-21.5 672,-15.5 678,-15.5"/>
<text text-anchor="middle" x="788" y="-91.3" font-family="Times,serif" font-size="14.00">Category</text>
<polyline fill="none" stroke="black" points="666,-83.5 910,-83.5 "/>
<text text-anchor="start" x="674" y="-68.3" font-family="Times,serif" font-size="14.00">id :integer</text>
<text text-anchor="start" x="674" y="-53.3" font-family="Times,serif" font-size="14.00">name :character varying</text>
<text text-anchor="start" x="674" y="-38.3" font-family="Times,serif" font-size="14.00">created_at :timestamp without time zone</text>
<text text-anchor="start" x="674" y="-23.3" font-family="Times,serif" font-size="14.00">updated_at :timestamp without time zone</text>
</g>
<!-- Category&#45;&gt;Category -->
<g id="edge1" class="edge"><title>Category&#45;&gt;Category</title>
<path fill="none" stroke="#a2de2f" d="M918.116,-71.9543C924.343,-69.204 928,-65.5526 928,-61 928,-56.9318 925.08,-53.5831 920.015,-50.9541"/>
<ellipse fill="none" stroke="#a2de2f" cx="914.186" cy="-73.2941" rx="4.00001" ry="4.00001"/>
<polygon fill="#a2de2f" stroke="#a2de2f" points="919.785,-50.8695 911.955,-43.192 915.092,-49.1422 910.4,-47.415 910.4,-47.415 910.4,-47.415 915.092,-49.1422 908.846,-51.638 919.785,-50.8695 919.785,-50.8695"/>
</g>
</g>
</svg>
